<mxfile host="app.diagrams.net" modified="2023-11-12T15:46:43.817Z" agent="Mozilla/5.0 (Windows NT 10.0; Win64; x64; rv:109.0) Gecko/20100101 Firefox/119.0" version="22.1.0" etag="ZZ1C1f1Ru7OsBCJrr7aN" type="github">
  <diagram name="Page-1" id="JOi2BzkaPxMeNZQbZAwI">
    <mxGraphModel>
      <root>
        <mxCell id="0" />
        <mxCell id="1" parent="0" />
      </root>
    </mxGraphModel>
  </diagram>
</mxfile>
